<svg width="289" height="210" viewBox="0 0 289 210" fill="none" xmlns="http://www.w3.org/2000/svg">
<mask id="path-1-outside-1_138_239" maskUnits="userSpaceOnUse" x="-0.148315" y="0.102905" width="289" height="210" fill="black">
<rect fill="white" x="-0.148315" y="0.102905" width="289" height="210"/>
<path fill-rule="evenodd" clip-rule="evenodd" d="M148.702 186.81C225.366 183.87 285.734 141.069 283.536 91.2123C281.339 41.3553 217.409 3.32205 140.744 6.26255C64.08 9.20305 3.71247 52.0038 5.90982 101.861C7.57018 139.534 44.4776 170.456 95.4926 182.051C85.5586 192.492 75.4249 200.718 68.9529 203.437C87.1594 206.63 113.038 198.68 137.092 186.945C140.925 187.004 144.797 186.96 148.702 186.81Z"/>
</mask>
<path fill-rule="evenodd" clip-rule="evenodd" d="M148.702 186.81C225.366 183.87 285.734 141.069 283.536 91.2123C281.339 41.3553 217.409 3.32205 140.744 6.26255C64.08 9.20305 3.71247 52.0038 5.90982 101.861C7.57018 139.534 44.4776 170.456 95.4926 182.051C85.5586 192.492 75.4249 200.718 68.9529 203.437C87.1594 206.63 113.038 198.68 137.092 186.945C140.925 187.004 144.797 186.96 148.702 186.81Z" fill="white"/>
<path d="M283.536 91.2123L278.352 91.4407L278.352 91.4407L283.536 91.2123ZM148.702 186.81L148.901 191.996L148.901 191.996L148.702 186.81ZM140.744 6.26255L140.546 1.07716L140.546 1.07716L140.744 6.26255ZM5.90982 101.861L0.725654 102.089L5.90982 101.861ZM95.4926 182.051L99.2522 185.627C100.539 184.275 101 182.336 100.46 180.55C99.9202 178.763 98.4626 177.404 96.6427 176.99L95.4926 182.051ZM68.9529 203.437L66.9426 198.653C64.8198 199.545 63.5387 201.73 63.7963 204.018C64.0538 206.306 65.7885 208.151 68.0565 208.548L68.9529 203.437ZM137.092 186.945L137.172 181.756C136.357 181.744 135.55 181.923 134.817 182.281L137.092 186.945ZM278.352 91.4407C279.348 114.03 266.198 135.705 242.691 152.372C219.228 169.007 185.98 180.188 148.503 181.625L148.901 191.996C188.088 190.493 223.356 178.803 248.694 160.838C273.987 142.905 289.922 118.251 288.721 90.9838L278.352 91.4407ZM140.943 11.4479C178.419 10.0105 212.549 18.6065 237.413 33.398C262.329 48.2212 277.356 68.8389 278.352 91.4407L288.721 90.9838C287.519 63.7287 269.483 40.4013 242.719 24.4787C215.901 8.52447 179.734 -0.425923 140.546 1.07716L140.943 11.4479ZM11.094 101.632C10.0984 79.0427 23.2479 57.368 46.7553 40.7012C70.2181 24.066 103.466 12.8854 140.943 11.4479L140.546 1.07716C101.358 2.58022 66.0904 14.2703 40.7526 32.2348C15.4594 50.1678 -0.476105 74.8218 0.725654 102.089L11.094 101.632ZM96.6427 176.99C46.4703 165.587 12.5985 135.769 11.094 101.632L0.725654 102.089C2.54187 143.299 42.4849 175.324 94.3425 187.111L96.6427 176.99ZM70.9632 208.221C74.8708 206.579 79.4702 203.484 84.1845 199.677C88.9735 195.81 94.1563 190.984 99.2522 185.627L91.733 178.474C86.8949 183.559 82.0439 188.066 77.6645 191.602C73.2104 195.199 69.507 197.576 66.9426 198.653L70.9632 208.221ZM134.817 182.281C123.011 188.041 110.858 192.821 99.5241 195.767C88.1188 198.732 77.9184 199.741 69.8493 198.326L68.0565 208.548C78.1939 210.326 90.0362 208.957 102.135 205.812C114.306 202.648 127.119 197.584 139.367 191.608L134.817 182.281ZM148.503 181.625C144.691 181.771 140.912 181.814 137.172 181.756L137.012 192.133C140.938 192.194 144.903 192.149 148.901 191.996L148.503 181.625Z" fill="black" mask="url(#path-1-outside-1_138_239)"/>
</svg>
