<svg height="324" viewBox="0 0 240 324" width="240" xmlns="http://www.w3.org/2000/svg"><g fill="none" fill-rule="evenodd"><g transform="translate(31.056338 135.052838)"><path d="m167.059479 151.260467c4.082958-.19719 2.440775-7.341886 2.147746-9.9658-3.232605-9.583468-2.472676-20.03939-3.744084-30.084446-.792042-9.37719-1.809718-18.7252136-2.665775-28.0952175-1.681267-19.0202583-13.754575-57.7404471-27.532458-63.9675968-1.735563-7.6183327-8.904064-14.7298956-17.973769-14.7298956-6.185915-7.32518982-13.63159-12.48050366-23.1815193-11.43960347-3.9464789.17964775-7.7737605 4.36691977-11.5552394 5.17554599-2.117324.29208611-20.9075071-.45968689-24.6714507 1.77661057-2.621831 1.34672407-4.988662 3.83537377-4.2177465 7.00372603 1.23 3.83854398-2.5924648-.31491194-10.566338 3.78211348-16.2598318 9.7692777-6.5436347 22.838436-6.1130713 23.2433832-10.1467605 14.1230606-19.0155203 25.5808595-23.118971 42.8433174-2.6594366 12.8160705-2.3600704 26.0463877-4.58830984 38.9281877-.78676057 4.466677-1.9937324 8.780548-3.29978873 13.11809-1.41549296 5.676658-2.10376903 19.825222-2.8839803 19.95161-1.42119718.353166.82137466 3.272406 2.32729015 3.274731 41.75154932 6.928274 84.16098592.287013 126.13690092-.798059 11.829508-.411499 23.671691-.506395 35.500564-.016697z" fill="#fff"/><path d="m103.778768 35.2058654c.019436-.1912721.277183-.1908494.297042 0l.294771 2.8467086c.358649 3.4767282.703921 6.9466903.954243 10.4396162.312042 4.3557182.520775 8.7103797.621338 13.07582.350704 15.203906.420423 30.4158434.45 45.6235538 2.055845-.14245 4.111901-.279616 6.169014-.412344 1.395634-.090177 2.791362-.176689 4.187246-.261793l3.559303-.215912 1.465352-.089982c.990212-.061292 2.115212-.310685 2.807536.566841.277183.351264.416197.807781.157817 1.224775-.595986.961855-1.511409.928251-2.546831.969887-.976902.039522-1.953803.078199-2.930705.11582-2.09345.081369-4.18669.15809-6.280774.216845-2.197606.061714-4.394155.111804-6.590916.149213-.022229 6.420087-.287755 12.832183-.574875 19.245183l-.129914 2.885941c-.351338 7.804321-.729295 15.615405-1.266126 23.409369-.044155.638067-.946479.636799-.990212 0-.604647-8.777166-1.003521-17.573142-1.399014-26.362144-.286901-6.372423-.453802-12.746537-.533239-19.121495-.290493.001902-.580775.005917-.871056.006974-8.2451412.03593-16.4881694.071859-24.7333103-.005495.0137324.016274.0272536.032548.0363381.054106.5966197 1.409072.6534507 3.20724.6388732 4.719452-.0166901 1.73434-.2501408 3.447546-.6494366 5.134121-1.430577 6.042137-5.1205032 11.453857-9.3231304 15.928048l-.1372217.145565c-.9912676 1.047874-2.1285211 2.10061-2.7371831 3.435287-.6217215 1.362787-.8375216 2.956835-1.1443101 4.421113l-.0358308.168359-1.1995774 5.542873c-.3811268 1.760548-.4892958 4.328242-1.8823944 5.598458-1.2997183 1.185252-3.0215493.566207-3.633169-.959742-.4776761-1.190959-.0019014-2.499006.2809859-3.689331l2.2164357-9.320555c.3641928-1.51996.7621389-3.049894 1.5481418-4.415312.8051408-1.398505 1.9854929-2.412352 3.1899296-3.449659 2.2806338-1.96429 4.3742957-4.213057 6.1449295-6.647812 1.77-2.43391 3.2826761-5.116791 4.3434507-7.937895.5311268-1.412242.9663381-2.879436 1.2665493-4.358465.2854226-1.403578.2828874-2.857245.588169-4.245817.0209155-.095953.101831-.161682.1945775-.190849-.0219718-.061925.0116197-.14562.0982394-.151115l6.743143-.433464c5.9940343-.386825 11.9878045-.783549 17.9764341-1.236838l1.05824-.076508c-.082183-8.505793-.012465-17.0132764.141127-25.5222392.140704-7.8028415.143662-15.6077965.375633-23.4095812.115353-3.8721488.364014-7.7352094.640775-11.5993268.283099-3.9518278.736268-7.8702623 1.143592-11.8102544zm-63.3152328 45.2427217c-.071831-.4332681.4730282-.701683.7242254-.3054012 2.871338 4.527546 4.2557746 9.445456 4.8392957 14.7437965.515493 4.6761252.3635916 9.4196716.1069014 14.1080546-.2738028 5.000548-.5932394 9.999828-.9162676 14.997628l-.496294 7.664222-1.2453961 19.213618c-.0891549 1.374411-.4009859 2.624125-1.5838732 3.263037-.1497888.125119-.3059155.237346-.4878169.334568-.6390845.341753-1.4866902.16908-1.8561972-.486951l.148156.097498c.1290524.081287-.0158602-.032234-.4348462-.340129l-.3555633-.460321c-.2583803-.388461-.4233803-.770371-.4897184-1.232172-.1030985-.717534.0304226-1.504603.077324-2.22573l.816338-12.599013c.6348592-9.794607 1.3761972-19.586466 1.935-29.386145.2602817-4.56728.4426057-9.1389983.3192254-13.7143094-.1229578-4.5499491-.3547183-9.1770411-1.100493-13.6722505zm24.8395651-84.34046125.1593082-.02675051c5.703169-.94769471 11.9047183-.77037182 17.1169014 1.97992955.0430986.02261448.0234507.09426223-.0249296.09214873l-1.6776524-.06702582c-5.3110417-.20806264-10.6056374-.33121852-15.8277702.9170767l-.5345954.12882929c-1.8806374.45894507-3.8445503 1.02068658-5.3551229 2.26323333-1.4438028 1.18778865-2.1627464 3.01998435-2.854014 4.70677104l-.0924525.22259396c-.7013719 1.66593142-1.5891118 3.2458892-3.1264208 4.28762128-1.9911972 1.3490489-4.3859155 1.183773-6.6690845 1.3670137-4.02.3231546-7.3066901 3.2376752-8.9419014 6.8042114-.9902113 2.1595773-1.4125352 4.5808062-1.4961972 6.9424344-.0428873 1.2023718-.0490141 2.4516634.1111268 3.6460039.0511267.38191.5230986 1.773229.7637324 1.7398356.5347183-.0741839 1.0235915.2047985 1.1902817.6323601 1.320845-1.2765557 2.6797183-2.5163366 4.0823239-3.7115225 3.4962676-2.9785597 7.2621127-5.678137 11.2280282-7.9979178 3.026831-1.7706927 6.219507-3.5249002 9.5256338-4.8511233-.2619719-.0054951-.5203521.0464971-.7702817.1764775-.1094366.0572759-.2182395-.0801017-.131831-.1709824 1.041338-1.0960626 2.288662-1.2520391 3.5461268-.9597417.2683098-.0853855.5368309-.1680234.8064084-.2464344.1341549-.0390998.2009155.1458317.0914789.2172681l-.3088733.1974012c1.3717606.4596869 2.7185916 1.3632094 3.7848592 2.0763053 3.0629577 2.047773 5.7589437 4.5512172 8.4919014 7.0077416l.4969053.4453367c2.4056104 2.148756 4.8725018 4.2368155 7.6056299 5.9606907 1.4307042.9022544 2.9334507 1.7368768 4.5097183 2.3576126 1.3519014.5328141 3.5530986.868227 4.1862676 2.297589.5628169.6839296.3276761 1.5568063-.3314788 2.0171272-1.1116902 1.2239296-3.335493.4332681-4.6601409-.0765088-1.5969718-.6146066-3.1440845-1.3532759-4.6195774-2.2196008-2.8645775-1.6823483-5.5058451-3.7740822-7.9662677-5.9991781-2.5696478-2.3240078-4.9935211-4.7927906-7.4928169-7.1897142-1.0828973-1.0385754-2.1408048-2.1015293-3.225343-3.1385519l-.5447274-.5161174c-.5535211-.5192877-1.3421831-1.3287593-2.1853521-1.8186693-1.5885211.9479061-3.2015493 1.8567123-4.7757042 2.829135-2.1973944 1.3572916-4.3301409 2.8124384-6.4299296 4.3155617-4.0423944 2.8935968-7.8730986 6.1344422-11.4293662 9.6081957-6.5222535 6.3705205-12.0790141 13.6451976-16.9333099 21.3480704l-.3686315.5870251c-2.7584772 4.4088905-5.3670952 8.959978-7.2167206 13.8317146-2.0351408 5.3609002-3.0249295 10.9982466-3.5626056 16.6888533-.533662 5.649816-.713662 11.3281644-1.3100704 16.9726964-.6116197 5.789096-1.8166902 11.450325-3.18739439 17.100987l-.32690678 1.339671c-1.24026968 5.060671-2.52040384 10.121347-3.15795237 15.301417-.34035211 2.766998-.54507042 5.571827-.49880282 8.361229.04647888 2.805675.4871831 5.549213.84274648 8.325299.13626761 1.063515-.90992958 1.951186-1.84605634 2.092157-1.07661972.161683-2.00154929-.525417-2.33619718-1.52595-1.04323944-3.118896-1.23274648-6.566653-1.2-9.840258.03295775-3.323483.45697183-6.625198 1.05359155-9.891405 1.17338028-6.424626 2.98415493-12.716313 4.49894366-19.064008 1.335-5.594865 2.23098592-11.199452 2.71394366-16.9310605.50133803-5.9465518.8015493-11.9129706 1.71612673-17.8166184.9027465-5.8281957 2.6013381-11.3951624 5.1629578-16.7095655 2.3323943-4.8386536 5.2398591-9.3930411 8.2880281-13.8075147 3.7016198-5.3604775 7.7670423-10.4614168 12.3114085-15.1090098-.408169-.0177534-.8273239-.149636-1.2122535-.3897299-1.1776057-.734865-1.7260564-2.1722583-1.8946479-3.4847437-.3946479-3.0702857-.2993662-6.2756242.4899296-9.2774325 1.2733098-4.8424579 4.5779577-9.1451272 9.3673943-10.89066923 1.2327465-.44933072 2.5432395-.61333855 3.8497183-.64567515 1.2397184-.03085714 2.5937324.13082584 3.7899296-.26228571 1.9040173-.62610923 2.7201459-2.86941817 3.4350314-4.56992406l.0329264-.0780916c.9166901-2.16697456 2.0169718-4.02432093 4.0024648-5.37738551 2.1183098-1.44387036 4.7723816-2.10050077 7.2716073-2.52445889zm54.1896247 8.56981701c1.713803-.59473973 3.856479-.05495108 5.532465.46454794 1.867183.57909981 3.592606 1.64557339 5.071902 2.9121957 1.560633 1.33573385 2.850422 2.9851115 3.761619 4.8276634l.087118.1775116c.832279 1.7091728 1.78013 4.0555661 1.360488 5.9332594-.012042.0532603-.025775.1046184-.041409.1542858 3.400353 1.6745283 6.540634 3.7719686 9.275282 6.4303326 3.184225 3.0952251 5.880423 6.6173777 8.162113 10.4225284 9.062062 15.1131354 10.657022 33.2638715 11.727317 50.4992565l.266936 4.3701087c.581109 9.4365641 1.261279 18.8507851 3.02793 28.1570611l.128899.671868c1.888441 9.743773 4.591707 19.562009 4.317861 29.557565-.082183 2.994833-4.506549 2.974544-4.634788 0-.482958-11.195859-3.094648-22.005581-4.863169-33.026442-3.111761-19.3894877-1.552606-39.3789985-5.961761-58.5742549-1.730282-7.5329471-4.410634-14.8399608-8.238169-21.5640704-1.890634-3.3217926-4.053803-6.5315695-6.587746-9.3972681-2.180071-2.4658239-4.445916-4.838865-6.993592-6.9117887-.814225.8158122-2.440775.4000861-2.865845-.789182-.291972-.8172915-.206831-1.7728062-.394225-2.6289863-.173874-.7944657-.413662-1.5821683-.733099-2.3303483-.63676-1.4910763-1.571408-2.9229746-2.650352-4.12978473-1.165563-1.30445402-2.505211-2.38825832-4.004155-3.28311546-1.509296-.90098631-3.15993-1.17003523-4.75162-1.82839139-.053662-.02219178-.058732-.09405088 0-.11455186zm6.658374 103.62397114c.002535-.078622.095281-.11582.152324-.063194.600845.553104.964014 1.346936 1.406197 2.027272.51.784532 1.045563 1.553002 1.607112 2.301605 1.125212 1.499742 2.377817 2.913252 3.640353 4.298231 1.174225 1.287968 2.425774 2.52162 3.724014 3.684469 1.406619 1.260282 2.982887 2.384454 4.260845 3.779789 2.666575 2.911576 3.097475 6.907666 3.660059 10.659826l.061631.405841c.343098 2.226787.650493 4.459492.927676 6.695366.134789 1.087609.269155 2.176274.379014 3.266631l.033554.345452c.097938 1.067462.124356 2.150399-.488413 3.083072-.655986.997785-2.147324 1.347569-3.034014.390787-1.523451-1.643672-1.237817-4.563265-1.435986-6.677824-.163702-1.748531-.349445-3.494889-.557362-5.238673l-.105807-.871676c-.245071-1.983733-.444085-4.00699-.897676-5.956274-.39993-1.716587-1.161972-3.012164-2.412254-4.255749-1.259577-1.252673-2.56838-2.422074-3.730986-3.771123-1.233169-1.430842-2.345493-2.965034-3.347746-4.566223-.857235-1.36955-1.544386-2.859932-2.173905-4.348586l-.104405-.248072c-.608451-1.451765-1.611761-3.341659-1.564225-4.940947zm21.995556-62.3577418c.01331-.2024736.312465-.2056438.316901 0 .037817 1.7415264.074155 3.4830528.110282 5.2247906.290704 14.0340822.111549 28.1013464 1.519014 42.0872407.663803 6.5943405 1.886197 13.0916715 3.300634 19.5619495.723803 3.310802 1.483099 6.613784 2.204577 9.925009.703099 3.227108 1.457113 6.469856 2.01486 9.726975.548072 3.201208 1.038905 6.427068 1.259223 9.669394l.027185.423005c.094859 1.570544.547606 3.880603-.316901 5.272767-.936761 1.508196-2.730212 1.535249-3.733944.095531-.942465-1.351585-.708169-3.755906-.874648-5.368298-.169225-1.642826-.348169-3.28692-.551408-4.925941-.39655-3.197096-.919015-6.387006-1.462395-9.562333-1.13176-6.612728-2.77331-13.142184-3.984929-19.744344-1.241831-6.765112-2.124507-13.5786225-2.161691-20.4665286-.036971-6.9464501.698029-13.8793737 1.069015-20.8106066.376901-7.0396556.805352-14.0740274 1.264225-21.1086106zm-66.270486-43.65095811c.3766902-1.26873581 1.7059859-2.06193346 3.0027465-1.70559687 1.1883803.32674756 2.169507 1.76963601 1.7049296 3.00413307-.5070423 1.34714677-1.3930986 2.49583562-2.1401409 3.72018787-.69 1.13135812-1.6964788 2.02219961-2.3993662 3.13347944l.7745544.8353646c.3875273.4167084.7761499.8309211 1.1691076 1.2379818l1.3509507 1.3999463c1.0521592 1.0879594 2.1109437 2.1701194 3.1995423 3.2203825 3.2011267 3.0888845 6.4529577 6.0763209 10.0379577 8.7215812.8161268.6019256 1.6385913 1.2004696 2.4840843 1.7609706l.315265.2089987c.580062.3799326 1.227246.7534047 1.927975.6890287 1.702733-.1564028 3.241209-1.9654032 4.411293-3.0913478l.061242-.058617c2.899648-2.7600234 5.584648-5.7776829 7.932042-9.0223326.521197-.7209159 1.025916-1.4540901 1.517324-2.1959296-1.13493-1.3262231-.863873-3.9150528-.926408-5.52342856-.044155-1.13093542-.047536-2.26208219-.053662-3.39386302l-.003091-.22822372c-.013825-.73253694-.046835-1.43510969.428372-2.03787412.027676-.0348728.08493-.03381605.120212-.01542857.650866.34118982.851422.91246144 1.129142 1.55325793l.029027.06653072c.338028.76910371.66169 1.54539334.989155 2.31893542.342887.80989432.657253 1.63162426.975845 2.4512407.148309.38127593.289859.76403132.428239 1.14890022.084296.2458004.171549.4903327.261127.7344422l.021127.0188102c.118309.1003914.218662.2064893.30507.3159687.363169.1817613.651761.5129472.787183.9994755.294718 1.0590764-.315211 1.9226537-.859225 2.7631938-2.209859 3.4154207-4.729014 6.6700039-7.529155 9.6223562-1.390986 1.466771-2.854014 2.8676007-4.377254 4.19636l-.266288.2307316c-1.368355 1.1763505-2.853949 2.2906602-4.681388 2.5658555-2.138573.3219342-3.879058-.7420704-5.5161331-1.9676282l-.1633737-.1230489c-1.5519718-1.175319-3.0726761-2.3918513-4.5460564-3.6643914-3.004014-2.5945362-5.8618309-5.3803444-8.3980985-8.436681-2.4671831-2.9728532-4.9058451-6.2969706-6.4265493-9.87407436-.0927465-.21790215.1510563-.44594912.3420422-.26397652.7428169.70738944 1.4575352 1.45324462 2.1638028 2.20861057.0196479-1.11191389-.1854929-2.23333855-.0714084-3.35222701.1392253-1.36003913.0990845-2.86252837.4882394-4.17205479z" fill="#000"/></g><g transform="translate(78.591549 38.043053)"><path d="m88.3994789 71.3525777c-1.3248592-9.5621213-4.3550704-18.846317-4.7900704-28.5519452-.2588029-4.1532446-.5176057-8.3067006-.7761972-12.4603679-.0982395-2.5941135-3.4666902-3.4693151-4.7533099-1.171092-2.9245775-3.2446497-8.1614789-2.7667867-12.1567606-2.6682975-23.52.833777-45.870845 16.7421135-53.9446478 38.9231155-.194155.5287984-.1354226 1.0916243.0840845 1.595272-3.76330989 12.5542075 9.5454929 20.6381448 18.6223943 26.235546 3.6821831 3.8926497 8.0104226 7.1267324 12.8976761 9.3416834 5.6220422 2.645894 11.8802113 4.121119 18.0916901 4.262301 1.3635212.03128 2.1826057-1.071546 2.2810564-2.213049 1.9816901-.461378 5.3727464.071225 6.4206338-1.960274 11.9507746-5.1926653 19.7374648-18.3538708 18.0234507-31.3328923z" fill="#fff"/><path d="m82.8077113 37.4416556c-.0338028-.3100509.4136619-.3195617.5057746-.0684775.7573944 2.0642583 1.5426761 4.1143561 2.1426761 6.230818.5784507 2.0397417.9950704 4.1257691 1.4169718 6.2029198.6997183 3.4471232 1.3014085 6.9196086 1.7991549 10.4032955 1.0637324-.8310294 2.4549296-.9066928 3.765-.2599609.6147888.3032877.8501409 1.105362.7026761 1.7275773-.1183099.4992094-.2630282.9958826-.4366902 1.4824109.3711972.3286498.6866198.7340196.9156339 1.199413.603169 1.2258317.4088028 2.5125323-.1322536 3.6819334.0411972.0697456.0819719.1399139.1204226.2143092.783169 1.5215108.3642253 2.8840861-.2080986 4.3686106-.4284507 1.1108571-.1892958 2.3616282-1.1135916 3.2002661-.321338 1.0326576-.8034507 1.9930333-1.5052817 2.8606263-.1592957.2918747-.3980281.5264735-.681338.6991467-.0711972 1.6297221-.243169 3.2539492-.5666197 4.8640157-1.2559859 6.2515303-5.2421831 11.8216673-10.1767606 15.7502466-4.8287324 3.8444617-10.4997887 6.1416277-16.6189436 6.8841017-2.9712676.360775-5.9469719.247069-8.8939437-.267992l-.3670829-.06535c-2.7192776-.493311-6.0099379-1.310191-7.8903115-3.362329-.9887324-1.079155-.4107042-3.4543094 1.3375352-3.2300667.9261972.1185677 1.7323944.2671467 2.6045071.6091117.6800704.266724 1.3614084.523726 2.0596479.741417 1.3373239.416571 2.7204929.741416 4.1089436.921064 2.8930986.373879 5.8994367.274967 8.759155-.289338 5.2001408-1.026317 10.2521831-3.393652 14.1984507-6.9578634 4.5872535-4.1430998 7.2762676-9.5052681 7.6719718-15.6898003.4407042-6.8879061-.3542958-13.9410881-1.0142958-20.793276-.3433098-3.5644227-.7791549-7.1216595-1.3039436-10.6638904-.5127465-3.4610724-.8201409-6.9172837-1.1993662-10.3929393zm-40.5966677-22.2413837.2223085-.0341553c8.8309859-1.3443992 18.1225352-1.2490802 26.4232394 2.3967124 1.5908451.6993581 3.1478874 1.5426458 4.6140846 2.5211976 1.0502112-.1096908 2.1065493-.1986693 3.1438732-.2132524 1.3054225-.0171194 2.5793662.661315 2.7399296 1.9822544 1.2232394.1521722 2.349507.6023483 3.0699296 1.5029119.2807746.3506301.4688028.7564227.5640845 1.1791233.7519014.1777456 1.4892253.4501761 2.1885211.8094716.8492958.4374951 1.3394366 1.6548728 1.0394366 2.5554364-.0692958.204418-.1480563.4035607-.2362817.598402l-.0679436.1453397.0401408.0549511c.678169 1.0905675.2070423 2.521409-.8323944 3.1723679-.7795774.4882192-1.65.8771037-2.5457746 1.0652055.0739436.3592955.1415493.7207045.1964789 1.0863405.0211267.1481565-.1688029.2538317-.2535212.1077886.2140845.6664579.4824648 1.3668024.8051409 2.1010333.1899296.4330567-.4185212.8177143-.6507043.3802192-.6169014-1.1666537-.999507-2.3628963-1.5593661-3.5654795-.5173944-.033816-1.0330986-.1521722-1.5295775-.378317-.3253521-.1479452-.572324-.3973386-.7497887-.6953425-.0107747.012681-.0169015.0274756-.0276761.0422701-1.6669014 2.1452055-4.9246479 2.8976125-7.4429577 3.576047-2.7040141.7293698-5.471831 1.1793346-8.2497888 1.5111546-4.8509155.5769863-9.7396479.6847749-14.6133803.9090176-.3228169.0145831-.645.0308571-.9673943.046497-1.9795775 1.7372994-4.5293662 2.8168767-7.1448592 3.1451037-1.3252817.1661214-2.8928873.1238513-4.3789436-.2147319-.5378874.5495108-1.2175353.9565715-1.9595071 1.1655969-.1335211 2.7684775-1.6766197 5.3896439-4.0094366 6.9174951l.0413766.1645622c.579677 2.3640522.5721973 4.9481695-1.5058836 6.59125-.2816198.2223405-.5890141.4129784-.9122536.5710685l.071022.1632888c1.0733779 2.5096201 1.4161716 5.2817692-.6015149 7.3641632-.8181252.8440153-2.254553.6441725-2.867979-.3245897l-.0299788-.0490776c-.0340141-.0576986-.0707746-.1130724-.1060563-.1697143-.0547183.1120157-.1383803.2064892-.2626056.2593268-.7669015.3299178-1.0732395.0866536-1.7725353-.2536203-.6464788-.3170255-1.3288732-.5537378-2.025845-.7374012-.5685212-.1481566-1.1347183-.2538317-1.7051409-.3151233-3.6042253 1.3780039-5.9323943 5.6050098-5.3788732 9.5720548.3 2.16 1.4854225 4.298865 3.5514084 5.1949902.9042254.3931116 1.9669014.5579648 2.9450705.4248141 1.3246478-.1796478 2.3429577-1.0142701 3.7140845-.5368297.540845.1881017.8790845.6131272.9084507 1.1943405.0488028.9128219-.2746479 1.5975968-.8197183 2.1048375.9612676.8031311 1.7366197 1.9190607 2.5711267 2.8090568 1.0438733 1.1136047 2.1021127 2.2274207 3.2302817 3.2545832 1.0647887.9743248 2.1973944 1.8789041 3.3971831 2.6822465l.126071.0830465c1.503437.9792922 3.3977859 1.8490976 3.4697037 3.8966796.0232394.6171428-.3507043 1.1833503-.8577465 1.4982622-1.8948592 1.1751076-3.9570423-.3677495-5.4422535-1.4982622-.5978874-.4546145-1.1788733-.9259257-1.7387324-1.4141449-.3739437.0295891-.7816902-.0314912-1.2063381-.2198043-.2725352-.1183561-.5387324-.2578473-.8007042-.4057925-.8514084.2134638-1.6542253.025362-2.3154929-.4205871-.9528169.2345988-1.9626761.2620744-2.8204226.0739726-.7835915-.1733072-1.4830986-.5431703-2.0598591-1.0398435-1.2042254.3846576-2.5415493.3127985-3.7288733-.41636-.7119718-.4372838-1.2676056-1.0609785-1.5697183-1.790137-.1538028-.2408548-.2522103-.5218455-.2596665-.8314591l-.0001926-.1175037c-1.0352113.0232485-2.0725353-.33182-2.8732395-1.1516478-.73521125-.7526184-1.09415491-1.6908023-1.13450702-2.6442035-1.0415493-.2956791-1.9943662-.9026771-2.71901408-1.8387476-1.2-1.5513111-1.36035212-3.4682583-.74345071-5.1801957-.04035211-.0908806-.0762676-.1838747-.10795774-.2768688-.95704226-1.3505284-1.5887324-2.9800392-1.53802817-4.6137769.00633802-.2536204.04014084-.5028024.09084507-.7500822-.94225352-.5011116-1.63521127-1.3803288-1.70915493-2.4983719-.05704226-.8771037.25774648-1.7351859.82605633-2.3840313-.27676056-.6615264-.39929577-1.3801174-.31478873-2.0987084.08661972-.7376125.34647888-1.3780039.72697183-1.9125088-.00866197-.1944423.00190141-.3912094.03359155-.5919922-.03802817-.1965557-.06971831-.399452-.08640845-.606364-.17978873-2.2658865 1.38359155-4.2483522 3.28711268-5.2945362.50070422-.2747553 1.04154929-.4987867 1.58239436-.6890019.39295775-.1394912.98450705-.1859883 1.33098592-.4417221-.01478873-.0105675.12887319-.1963445.15422539-.2958904.0274648-.1225832.0570422-.2430529.0720422-.3677496.056831-.5241487.0145775-1.0630919.0040141-1.5893542-.0464789-2.3882583.0274648-4.7870841.2788732-7.1626614.4669014-4.4045401 1.6185212-8.7139726 3.8619719-12.5626615 1.8823943-3.2252054 4.4598591-5.9495107 7.4154929-8.2088454 5.8871106-4.498132 13.2337201-6.9438816 20.4967056-8.0730306zm-27.2828957 54.7751895c-.7663437-1.8425391 2.8415266-1.8607574 3.7954344-1.7731663l.0280867.0026849c2.1471127.2136752 5.5039437 1.2467554 6.3823944 3.4141527.3635915.897182-.7128169 1.8696047-1.5741549 1.5745597-.8431691-.2887045-1.315986-.9088063-1.9926761-1.4513425-.1774648-.1424501-.3625352-.2753894-.5509859-.4036791.0992656.316165.2580989.6082748.4785299.82641l.051963.049003c1.0390141.9337456-.8190845 2.4011506-1.5086619 1.1645401-.3671831-.6579335-.5142254-1.3799061-.3997183-2.1270294.034014-.2204383.093169-.4220665.1791549-.6143953-.0684507-.0342387-.1358451-.0714364-.2051409-.104407l-.1237047-.0574477c-.8269653-.375395-4.3556671-1.8491476-4.3270699-.5313742.003169.1458317-.1859155.146043-.2334507.0314911z" fill="#000"/></g><g fill="#000"><path d="m30.968993 50.9198978c-1.420199-.5795966-2.6873757-1.546402-3.6138041-2.7814332-.3220851-.4293477-.4055963-.882732-.3380299-1.2974099.0759737-.4662761.3517218-.8888723.7277804-1.1723369.3772234-.2843426.849082-.4245733 1.3052709-.3530877.3964014.0621168.7910001.2792408 1.1032955.729548l.0652463.0900508c.5507777.7454224 1.2684917 1.3570325 2.0862767 1.7512506.7882118.3799622 1.6697469.5573052 2.581992.4541766 1.7374296-.1963404 2.9349535-1.1363287 4.2077907-2.412817.1577719-.1611599.3156448-.3273719.4742831-.4962594.1001832-.1530957.2392123-.2514905.3935724-.3031165.1713895-.0573216.365271-.0540784.5428517.0079176.1712774.0597955.3243908.1731052.4270575.3239129.0975763.1433306.1528992.320396.1349483.5240652-.116505 1.3228712-.8078469 2.5034774-1.7898692 3.4305026-1.0906611 1.0295799-2.5364122 1.7418502-3.8975236 1.9916657-1.4995451.2751814-3.0275416.0780297-4.4111387-.4866294zm5.1185359-20.4078573c1.5953617.9701075 4.0262029 3.2322089 2.309961 5.6372235-2.020181 2.1205809-4.9287854-.3108099-6.3620953-1.4104333-1.329032-.8522143-2.822274 1.3396171-1.5891973 2.3347209 10.3571271 7.6710089 14.5602687-6.3078415 6.4482433-7.7021197-.8931631-.1536434-1.2248862.8404952-.8069117 1.1406086zm-18.5600712-8.9233689c.1762666-2.1888019 3.5085212-2.6858395 3.84-.5199217.296831 1.9401957-.0526056 3.7225127-.9261971 5.4693229-.8347183 1.6688219-2.932715.8902379-3.0913769-.6293707-.2126798-2.0369722.0679262-2.9584704.177574-4.3200305zm25.3655705-.9690199c.4645774-.6086889 1.1353521-1.0242036 1.9390141-.7893934 2.5109154.7340196 1.770845 4.3001331.889014 6.0359531-.4791549.9426223-2.0279577 1.1816594-2.7278873.3516868-1.1408451-1.3534872-1.6871831-4.0564461-.236831-5.3896438.0392958-.0689002.0830282-.1384344.1366902-.2086027zm-22.4871338-8.6085088.3966276-.0694487c1.2269998-.2122897 2.7526329-.4162766 3.6206259.5705602.4603521.5233033.6188028 1.4959374 0 1.9968376-1.0884507.8813307-2.291831.5397886-3.5961972.6143953-1.0749296.0617143-2.1080282.2396712-3.1434507.535773-2.2715493.6494794-4.1224648 1.8351546-6.0625352 3.1370724-.2545775.170771-.5144366-.1549198-.3929578-.3931116 1.1199296-2.1944501 3.2902817-3.9970567 5.4642254-5.0958669 1.1602817-.5864971 2.43-1.0730254 3.713662-1.2962113zm20.1982343-.983014.3035768.062154c3.3036414.6908214 7.5958451 2.0707939 9.1602787 5.3170192.0596122.4590277-.0033737.5574065-.0545925.6216817l-.0170532.0213885c-.0422044.0548872-.0758802.1305489-.2747649.1930234-.0551904-.0131549-.1109303-.0270877-.1672605-.0418556-.717109-.1880015-1.284481-.447-1.8337571-.7157419l-.5955548-.2935232c-.6909624-.3389252-1.3880255-.6655152-2.1267524-.9066162-1.5765065-.514415-3.198079-.8767882-4.8447747-1.0702873-.3569087-.0419037-.7005893-.1624074-.9717286-.3689311-.2573655-.1960325-.4539763-.467444-.5436198-.828209-.1161779-.4668876-.0827909-.8203598.1676164-1.2415607.1882908-.3163129.4577049-.5355591.7670604-.6614577.3153745-.1283482.6744253-.1586062 1.0313262-.0870841z" transform="translate(112.183099 77.354207)"/><path d="m44.2732394 29.1798391c-6.2521126.9190562-10.7774648.7291257-13.5760563-.5697913-4.1852113-1.9422741-8.256338-3.8215006-12.0528169-6.3942512-3.8894366-2.6357982-7.1894366-5.7658085-9.54507043-9.7723845-2.19084507-3.72794608-4.01197183-7.68367717-5.84577464-11.60890134-.1071634-.22938145-1.15985916-2.50970292-1.53169014-3.27440981-.57253522-1.18570243-2.24635807-.81351948-2.24635807 1.02706643 0 1.84058592-.08181095 15.77945602 3.13368201 21.26256702 2.90070422 4.9522906 7.81690137 8.4125345 12.70140847 11.4327199 5.4042253 3.3394913 12.5830986 6.9494772 19.0309859 7.903327 5.8352113.8623291 12.4943662-1.5599207 16.7197183-5.5522601 4.4176056-4.1753809 5.6683099-9.8477993 7.9478873-15.2800655.509155-1.2141755-1.2958633-1.9464387-1.8253521-.7523397-.6647234 1.499079-4.9682445 5.3586533-12.9105634 11.5787231z" transform="translate(104.577451 109.47938)"/><path d="m77.5541197 15.7312885c-.5974648 1.6265518-1.5067605 3.3198904-2.618662 4.6888062-4.4987323 3.8110685-8.8700704 1.7009472-11.0896478-3.4642426-.8433803-3.650231 1.395845-7.58219183 3.7685915-10.26739731 3.4267606-3.43592172 9.0192254-1.63268101 10.5948592 2.45187476.0957042.52922113.1535915 1.05717415.1812676 1.58343635-.0327465 1.7100353-.2387324 3.1715226-.8364085 4.7961723m-43.2422535-3.0690177c5.9264789-7.0521252 17.0138028-7.42917412 16.7309155 3.4247202-1.2730986 13.7386145-22.7106338 10.3665206-16.7309155-3.4247202zm45.1062676-5.88293537c-.2076761-.35189824-.438169-.69238356-.6897887-1.01807437-.0929578-.05537377-.1464085-.54655186-.4882395-.58290411-4.5690845-5.04260665-12.5957746-2.18155773-15.4960563 2.84308415-.5296479.63531898-.9616901 1.37906067-1.2802817 2.16486106-2.8576056-.52436008-6.1890845-.42248924-8.846831.65729944-2.6353521-6.88410179-10.6138732-7.49870844-15.8716901-4.55734641-3.2702113 1.60900979-5.3907042 4.97856751-8.5711268 6.82957341-7.4765493.5383092-15.5007042-1.1374873-22.8422535.7386693-5.79 1.2042739-.94985916 4.1371819.02112676 2.1798669 6.92176054-2.0458709 15.12211264-.3170255 22.30880284-.7779804.7472535 1.2645088 2.1802817 2.2992798 3.6084507 2.2551076 1.5424648 13.6788023 21.4827465 11.410591 22.1706338-.7490255.7802112-1.2340743 1.7505634-2.4150998 3.1394366-3.1839921.5317606-.1101135 1.0453521-.2531977 1.5147887-.4746928.8023944-.1132837 2.0387324.2269902 2.7769014.8952799 2.528662 15.1783326 17.0966198 13.4105988 19.7000705.1137064.0517605-.0528376.1964788-.2510841.3076056-.5691663.8911268-1.1787006 3.0726761-1.6168298 2.7240845-3.60669279-.3103521-1.99028571-2.8227465-1.96661448-4.1856338-3.15757338z" transform="translate(88.521127 88.978474)"/></g></g></svg>