<svg width="265" height="247" viewBox="0 0 265 247" fill="none" xmlns="http://www.w3.org/2000/svg">
<mask id="path-1-outside-1_1_85" maskUnits="userSpaceOnUse" x="-0.82373" y="0.727356" width="266" height="246" fill="black">
<rect fill="white" x="-0.82373" y="0.727356" width="266" height="246"/>
<path fill-rule="evenodd" clip-rule="evenodd" d="M188.675 59.252C190.063 75.7684 181.655 91.5839 166.835 103.992C221.967 110.758 263.369 143.821 260.717 180.296C257.933 218.579 207.674 246.123 148.46 241.817C118.633 239.648 92.2241 229.812 73.7128 215.691C65.4883 218.539 53.6907 219.378 46.5 218.027C49.8246 216.529 56.6971 209.315 60.0605 202.826C50.4094 191.377 45.2961 178.277 46.2831 164.704C47.3259 150.362 55.032 137.527 67.3757 127.31C32.5101 121.114 6.51765 100.832 4.32506 74.748C1.45691 40.6267 40.3999 9.49698 91.3067 5.21788C142.214 0.938782 185.807 25.1307 188.675 59.252Z"/>
</mask>
<path fill-rule="evenodd" clip-rule="evenodd" d="M188.675 59.252C190.063 75.7684 181.655 91.5839 166.835 103.992C221.967 110.758 263.369 143.821 260.717 180.296C257.933 218.579 207.674 246.123 148.46 241.817C118.633 239.648 92.2241 229.812 73.7128 215.691C65.4883 218.539 53.6907 219.378 46.5 218.027C49.8246 216.529 56.6971 209.315 60.0605 202.826C50.4094 191.377 45.2961 178.277 46.2831 164.704C47.3259 150.362 55.032 137.527 67.3757 127.31C32.5101 121.114 6.51765 100.832 4.32506 74.748C1.45691 40.6267 40.3999 9.49698 91.3067 5.21788C142.214 0.938782 185.807 25.1307 188.675 59.252Z" fill="white"/>
<path d="M166.835 103.992L164.268 100.926C163.046 101.948 162.548 103.599 163 105.127C163.451 106.654 164.767 107.769 166.348 107.963L166.835 103.992ZM188.675 59.252L192.661 58.917V58.917L188.675 59.252ZM260.717 180.296L264.706 180.586V180.586L260.717 180.296ZM148.46 241.817L148.75 237.828L148.46 241.817ZM73.7128 215.691L76.1388 212.511C75.073 211.698 73.6706 211.473 72.4038 211.911L73.7128 215.691ZM46.5 218.027L44.8575 214.379C43.2644 215.097 42.3212 216.765 42.5281 218.5C42.735 220.235 44.0439 221.635 45.7611 221.958L46.5 218.027ZM60.0605 202.826L63.6118 204.667C64.3566 203.23 64.162 201.486 63.1188 200.248L60.0605 202.826ZM46.2831 164.704L42.2936 164.414L46.2831 164.704ZM67.3757 127.31L69.9263 130.391C71.1268 129.397 71.6409 127.797 71.2436 126.29C70.8463 124.783 69.6099 123.644 68.0756 123.371L67.3757 127.31ZM4.32506 74.748L8.311 74.4129L4.32506 74.748ZM91.3067 5.21788L91.6418 9.20382L91.3067 5.21788ZM169.403 107.059C184.886 94.0958 194.19 77.1124 192.661 58.917L184.689 59.5871C185.936 74.4244 178.424 89.072 164.268 100.926L169.403 107.059ZM264.706 180.586C266.157 160.631 255.52 142.089 237.96 127.893C220.377 113.678 195.508 103.481 167.323 100.022L166.348 107.963C193.295 111.269 216.692 120.986 232.93 134.114C249.191 147.26 257.929 163.486 256.727 180.006L264.706 180.586ZM148.169 245.806C178.43 248.007 206.587 242.09 227.672 230.535C248.715 219.003 263.183 201.535 264.706 180.586L256.727 180.006C255.467 197.341 243.414 212.786 223.827 223.52C204.283 234.231 177.703 239.933 148.75 237.828L148.169 245.806ZM71.2867 218.871C90.5041 233.531 117.686 243.59 148.169 245.806L148.75 237.828C119.581 235.707 93.9442 226.093 76.1388 212.511L71.2867 218.871ZM72.4038 211.911C64.7981 214.545 53.7059 215.311 47.2388 214.095L45.7611 221.958C53.6756 223.445 66.1786 222.533 75.0217 219.471L72.4038 211.911ZM48.1424 221.674C49.4834 221.07 50.8733 220.054 52.1367 218.982C53.455 217.863 54.853 216.495 56.2218 214.993C58.9378 212.014 61.7267 208.304 63.6118 204.667L56.5091 200.986C55.0309 203.837 52.7018 206.979 50.3096 209.604C49.1243 210.904 47.9706 212.025 46.9601 212.883C45.8948 213.787 45.1789 214.235 44.8575 214.379L48.1424 221.674ZM42.2936 164.414C41.2153 179.243 46.8317 193.339 57.0021 205.404L63.1188 200.248C53.9871 189.415 49.3769 177.311 50.2725 164.994L42.2936 164.414ZM64.8252 124.228C51.851 134.968 43.4333 148.74 42.2936 164.414L50.2725 164.994C51.2185 151.984 58.2129 140.087 69.9263 130.391L64.8252 124.228ZM0.339115 75.083C2.75768 103.856 31.0781 124.922 66.6759 131.248L68.0756 123.371C33.9422 117.306 10.2776 97.8091 8.311 74.4129L0.339115 75.083ZM90.9717 1.23194C64.8368 3.42877 41.5929 12.5259 25.1527 25.6677C8.73698 38.7898 -1.241 56.2851 0.339115 75.083L8.311 74.4129C7.02296 59.0896 15.0824 43.9593 30.1479 31.9165C45.1888 19.8933 66.8699 11.2861 91.6418 9.20382L90.9717 1.23194ZM192.661 58.917C191.081 40.119 178.322 24.5349 159.946 14.3373C141.543 4.12439 117.107 -0.964898 90.9717 1.23194L91.6418 9.20382C116.414 7.12156 139.227 11.9887 156.064 21.3323C172.929 30.6912 183.401 44.2637 184.689 59.5871L192.661 58.917Z" fill="black" mask="url(#path-1-outside-1_1_85)"/>
</svg>
